HIERARCHY
ROOT Hips
{
	OFFSET 0.000000 88.474243 0.000000
	CHANNELS 6 Xposition Yposition Zposition Zrotation Yrotation Xrotation 
	JOINT Hips_Spine
	{
		OFFSET 0.000000 0.000000 0.000000
		CHANNELS 3 Zrotation Yrotation Xrotation
		JOINT Spine
		{
			OFFSET 0.005100 8.711998 -0.691000
			CHANNELS 3 Zrotation Yrotation Xrotation
			JOINT Spine1
			{
				OFFSET -0.009200 8.660301 -1.275000
				CHANNELS 3 Zrotation Yrotation Xrotation
				JOINT Spine2
				{
					OFFSET 0.006300 9.852501 -1.857000
					CHANNELS 3 Zrotation Yrotation Xrotation
					JOINT Spine2_Neck
					{
						OFFSET 0.000000 0.000000 0.000000
						CHANNELS 3 Zrotation Yrotation Xrotation
						JOINT Neck
						{
							OFFSET 0.016300 11.420799 -0.263300
							CHANNELS 3 Zrotation Yrotation Xrotation
							End Site #name: Head
							{
								OFFSET -0.019200 9.262405 2.362500
							}
						}
					}
					JOINT Spine2_LeftShoulder
					{
						OFFSET 0.000000 0.000000 0.000000
						CHANNELS 3 Zrotation Yrotation Xrotation
						JOINT LeftShoulder
						{
							OFFSET 5.616900 6.732201 -0.345700
							CHANNELS 3 Zrotation Yrotation Xrotation
							JOINT LeftArm
							{
								OFFSET 10.664888 -0.183372 -2.440700
								CHANNELS 3 Zrotation Yrotation Xrotation
								JOINT LeftForeArm
								{
									OFFSET 27.459126 0.000000 0.000000
									CHANNELS 3 Zrotation Yrotation Xrotation
									End Site #name: LeftHand
									{
										OFFSET 21.306858 0.000000 0.000000
									}
								}
							}
						}
					}
					JOINT Spine2_RightShoulder
					{
						OFFSET 0.000000 0.000000 0.000000
						CHANNELS 3 Zrotation Yrotation Xrotation
						JOINT RightShoulder
						{
							OFFSET -5.580300 6.737503 -0.344400
							CHANNELS 3 Zrotation Yrotation Xrotation
							JOINT RightArm
							{
								OFFSET -10.679335 -0.188484 -2.383900
								CHANNELS 3 Zrotation Yrotation Xrotation
								JOINT RightForeArm
								{
									OFFSET -27.503529 0.000000 0.000000
									CHANNELS 3 Zrotation Yrotation Xrotation
									End Site #name: RightHand
									{
										OFFSET -21.306808 0.000000 0.000000
									}
								}
							}
						}
					}
				}
			}
		}
	}
	JOINT Hips_LeftUpLeg
	{
		OFFSET 0.000000 0.000000 0.000000
		CHANNELS 3 Zrotation Yrotation Xrotation
		JOINT LeftUpLeg
		{
			OFFSET 6.857700 -6.739601 0.312100
			CHANNELS 3 Zrotation Yrotation Xrotation
			JOINT LeftLeg
			{
				OFFSET -0.367590 -34.731552 -4.572400
				CHANNELS 3 Zrotation Yrotation Xrotation
				End Site #name: LeftFoot
				{
					OFFSET 0.367590 -34.656704 -6.067400
				}
			}
		}
	}
	JOINT Hips_RightUpLeg
	{
		OFFSET 0.000000 0.000000 0.000000
		CHANNELS 3 Zrotation Yrotation Xrotation
		JOINT RightUpLeg
		{
			OFFSET -6.876100 -6.733299 0.301000
			CHANNELS 3 Zrotation Yrotation Xrotation
			JOINT RightLeg
			{
				OFFSET 0.347353 -34.795158 -4.515900
				CHANNELS 3 Zrotation Yrotation Xrotation
				End Site #name: RightFoot
				{
					OFFSET -0.347353 -34.589367 -6.070300
				}
			}
		}
	}
}
MOTION
Frames: 14
Frame Time: 0.041667
0.024654 0.006674 -0.023523 -4.462260 -1.896137 -3.415856 0.000000 0.000000 0.000000 2.666583 1.851241 15.519280 1.137348 1.380717 2.702230 0.000000 0.000000 0.000000 1.374647 1.071178 0.827699 1.905654 -0.522867 5.266713 1.153246 0.314315 3.057074 -10.948047 -8.818397 2.091741 -58.856852 9.002221 4.020117 0.594709 -19.566897 0.024892 1.817141 0.809621 3.143197 8.538208 -4.259925 0.628496 68.456902 6.783091 33.461331 -0.036750 23.190030 0.848742 0.000000 0.000000 0.000000 7.449379 9.572353 -53.603857 8.161480 -3.737867 53.479824 0.000000 0.000000 0.000000 -5.026615 -7.254139 -44.497873 -0.543091 -1.750085 52.850685 
0.044518 0.027709 -0.100436 -4.518565 -0.857077 -2.471370 0.000000 -0.000000 -0.000000 2.215982 0.681394 12.756281 0.948395 0.505190 2.143741 0.000000 0.000000 0.000000 1.103651 0.648772 1.947282 1.484638 -0.555705 4.434360 1.149361 0.760733 2.535384 -10.158004 -6.464025 1.108889 -62.445157 4.930427 -0.849343 -0.002694 -23.455252 0.901616 0.823975 0.589475 2.797534 9.065049 -4.897533 0.490375 69.279792 9.976764 26.520230 0.201684 29.253223 0.550753 0.000000 0.000000 -0.000000 6.991556 10.688936 -53.893570 7.300269 -3.446726 51.550463 0.000000 0.000000 0.000000 -3.964057 -7.308298 -46.472511 -0.115690 -1.537710 53.797245 
0.042008 0.015403 -0.158966 -4.226387 -0.179339 -2.351766 0.000000 0.000000 -0.000000 2.675944 1.055682 13.855755 0.654706 0.578285 1.818381 0.000000 0.000000 0.000000 0.723936 0.406618 1.724062 1.487642 0.312422 3.588398 0.919950 0.702036 2.192619 -10.767715 -5.706470 0.893808 -60.531079 5.892242 1.698302 -0.058761 -24.056183 0.893672 0.571065 0.622344 2.574665 8.230883 -4.840582 0.454012 68.776057 10.833206 25.529769 0.286214 34.397797 0.254122 -0.000000 0.000000 -0.000000 6.784241 10.214950 -54.176667 7.036151 -3.669323 50.772927 0.000000 0.000000 0.000000 -4.159154 -7.013766 -47.136408 0.189898 -1.297377 54.674127 
0.042220 0.005826 -0.215743 -4.169376 0.117215 -2.511924 0.000000 0.000000 -0.000000 2.691599 1.514831 13.952376 0.559863 0.557713 2.037123 0.000000 0.000000 0.000000 0.683293 0.407825 1.586099 0.847627 0.445901 4.552933 0.729997 0.552145 1.947392 -9.201698 -4.559860 0.604480 -62.142875 3.894802 -0.364431 -0.100119 -23.982979 0.923917 0.570032 0.609667 2.589893 8.124536 -5.381722 0.415953 70.518261 12.949999 25.350771 0.244571 38.979278 0.115613 -0.000000 0.000000 -0.000000 6.724379 10.214888 -53.553357 6.958764 -3.477091 49.885114 0.000000 0.000000 0.000000 -4.136275 -7.111465 -47.477128 0.638660 -1.102165 55.192931 
0.050260 0.002614 -0.269551 -4.127465 0.354615 -2.601861 0.000000 0.000000 -0.000000 2.618285 1.739300 14.311695 0.510047 0.518991 2.170123 0.000000 0.000000 0.000000 0.667254 0.398695 1.629825 0.732030 0.383986 5.467669 0.662904 0.453439 1.900075 -8.470145 -3.670095 0.382844 -62.714246 1.842308 -1.829412 -0.089501 -24.974052 0.916329 0.550463 0.587024 2.751322 8.654241 -6.004050 0.300091 71.410930 14.478005 25.026407 0.167877 42.805951 0.018831 -0.000000 0.000000 -0.000000 6.732655 10.358962 -53.230723 6.730349 -3.311635 49.772878 0.000000 0.000000 0.000000 -4.272504 -7.147640 -47.674341 0.854590 -1.072460 55.486187 
0.061850 0.003890 -0.318868 -4.108659 0.374026 -2.664807 0.000000 0.000000 -0.000000 2.577919 1.715058 14.606456 0.483891 0.480221 2.295523 0.000000 0.000000 0.000000 0.665822 0.373367 1.745680 0.758634 0.333334 6.075382 0.668018 0.413232 2.026038 -7.910926 -2.845164 0.162979 -62.937331 0.635342 -1.680285 -0.072733 -26.310212 0.872792 0.524314 0.563168 2.884984 9.246428 -6.018112 0.243975 71.255636 15.641080 24.150319 0.117438 44.883778 -0.015261 -0.000000 0.000000 -0.000000 6.823493 10.619091 -53.081723 6.655537 -3.257274 50.051556 0.000000 0.000000 0.000000 -4.465353 -7.071556 -47.665087 0.935894 -1.080095 55.596110 
0.074392 0.008875 -0.364938 -4.096218 0.269019 -2.688706 0.000000 0.000000 -0.000000 2.587008 1.645400 14.854294 0.495479 0.446806 2.389761 0.000000 0.000000 0.000000 0.692064 0.362040 1.834888 0.847972 0.314501 6.323072 0.689356 0.407237 2.146250 -7.305850 -2.011312 -0.048258 -62.966407 0.181008 -0.919981 -0.063271 -27.713878 0.884573 0.519075 0.547833 2.967929 9.587659 -5.656288 0.245504 70.702271 16.270419 23.617826 0.105904 45.357009 -0.004550 -0.000000 0.000000 -0.000000 6.896460 10.780180 -52.985505 6.662774 -3.257428 50.259372 0.000000 0.000000 0.000000 -4.558778 -7.005356 -47.462972 0.961116 -1.062768 55.431127 
0.084851 0.015164 -0.408463 -4.094484 0.194053 -2.670181 0.000000 0.000000 -0.000000 2.566651 1.623215 14.880057 0.487525 0.436300 2.441857 0.000000 0.000000 0.000000 0.707651 0.357778 1.890108 0.904050 0.298260 6.479609 0.699802 0.414988 2.248546 -6.902519 -1.389156 -0.189402 -62.772353 0.216312 -0.139099 -0.060954 -29.045146 0.895814 0.510875 0.549747 3.010427 9.639568 -5.290653 0.278770 70.300033 16.418666 23.204263 0.120087 44.951057 0.015114 -0.000000 0.000000 -0.000000 6.936070 10.819592 -53.001322 6.672734 -3.260897 50.386761 0.000000 0.000000 0.000000 -4.588491 -6.961866 -47.253158 0.941820 -1.060421 55.207708 
0.089596 0.021350 -0.450492 -4.110187 0.161401 -2.637798 0.000000 0.000000 -0.000000 2.538799 1.634367 14.881862 0.471787 0.443162 2.483307 0.000000 0.000000 0.000000 0.712217 0.365160 1.932955 0.906364 0.267159 6.598519 0.704391 0.439078 2.320816 -6.584978 -0.865881 -0.305517 -62.532659 0.512792 0.386347 -0.065172 -30.144684 0.902970 0.497395 0.560521 3.041594 9.530109 -5.082887 0.315586 70.216455 16.336885 22.873502 0.135474 44.739884 0.041830 -0.000000 0.000000 -0.000000 6.951610 10.828512 -53.096782 6.671681 -3.288583 50.514219 0.000000 0.000000 0.000000 -4.589271 -6.942839 -47.170953 0.945413 -1.049328 55.090617 
0.089560 0.027196 -0.491046 -4.133067 0.155670 -2.608477 0.000000 0.000000 -0.000000 2.523676 1.662378 14.937302 0.449043 0.457632 2.511621 0.000000 0.000000 0.000000 0.702051 0.372212 1.964067 0.881811 0.246529 6.682490 0.698777 0.458526 2.361830 -6.358800 -0.400859 -0.418846 -62.422578 0.801993 0.798654 -0.068152 -31.119937 0.911406 0.476927 0.572231 3.066289 9.394968 -5.052593 0.339798 70.364896 16.145002 22.590911 0.149620 45.164600 0.072744 -0.000000 0.000000 -0.000000 6.962349 10.805137 -53.199462 6.665655 -3.326454 50.596980 0.000000 0.000000 0.000000 -4.575199 -6.938137 -47.202562 0.944742 -1.034991 55.096859 
0.085359 0.033055 -0.530421 -4.154973 0.168527 -2.593123 0.000000 0.000000 -0.000000 2.525537 1.669102 15.064692 0.420173 0.468858 2.535279 0.000000 0.000000 0.000000 0.678512 0.373454 1.982988 0.847821 0.238437 6.766292 0.681995 0.466613 2.385178 -6.213829 -0.087796 -0.502023 -62.415107 0.963572 1.159648 -0.071669 -31.894043 0.916533 0.449696 0.578566 3.079963 9.284910 -5.176356 0.342660 70.633399 15.866529 22.212894 0.165720 46.569845 0.112819 -0.000000 0.000000 -0.000000 6.973318 10.776104 -53.297837 6.654370 -3.363082 50.663562 0.000000 0.000000 0.000000 -4.559968 -6.944291 -47.294105 0.942069 -1.022192 55.177590 
0.077900 0.039198 -0.568952 -4.172567 0.186640 -2.585805 0.000000 0.000000 -0.000000 2.550249 1.667728 15.255564 0.404553 0.470341 2.566519 0.000000 0.000000 0.000000 0.653846 0.372893 1.991963 0.823516 0.240542 6.860585 0.660017 0.466649 2.395595 -6.077060 0.173860 -0.575433 -62.506816 1.062540 1.533843 -0.072875 -32.479023 0.924246 0.426625 0.578749 3.093504 9.193846 -5.365827 0.331521 70.830474 15.563763 21.533828 0.185707 48.988348 0.161975 -0.000000 0.000000 -0.000000 6.982987 10.750643 -53.382618 6.643466 -3.394362 50.724746 0.000000 0.000000 0.000000 -4.547530 -6.956164 -47.395056 0.936735 -1.014349 55.284396 
0.068122 0.045694 -0.606937 -4.184362 0.203338 -2.585622 0.000000 0.000000 -0.000000 2.570498 1.664505 15.446749 0.388458 0.468543 2.597527 0.000000 0.000000 0.000000 0.631283 0.370006 2.004626 0.815597 0.244825 6.972279 0.638957 0.461826 2.404431 -5.965116 0.402337 -0.640398 -62.628559 1.086974 1.890138 -0.073764 -32.961767 0.932121 0.404807 0.577117 3.110392 9.069680 -5.573457 0.315931 70.884318 15.213954 20.506177 0.209016 52.019030 0.218974 -0.000000 0.000000 -0.000000 6.992446 10.726829 -53.448503 6.636446 -3.414959 50.774005 0.000000 0.000000 0.000000 -4.537368 -6.965934 -47.484685 0.930584 -1.007972 55.384773 
0.056581 0.052420 -0.644615 -4.193404 0.219220 -2.587572 0.000000 0.000000 -0.000000 2.573714 1.657453 15.614521 0.371865 0.465110 2.628698 0.000000 0.000000 0.000000 0.609213 0.365691 2.022963 0.822196 0.249065 7.095729 0.618345 0.456842 2.414278 -5.864607 0.623798 -0.699500 -62.762030 1.153839 2.272680 -0.073870 -33.371579 0.938339 0.380709 0.575311 3.125830 8.888401 -5.734223 0.305386 70.857593 14.834717 19.265781 0.239659 55.323206 0.281133 -0.000000 0.000000 -0.000000 7.003069 10.707423 -53.508533 6.632677 -3.434044 50.826140 0.000000 0.000000 0.000000 -4.529736 -6.976234 -47.554233 0.928977 -1.002045 55.468910 
